<svg xmlns="http://www.w3.org/2000/svg" width="78.016" height="68.133" viewBox="0 0 78.016 68.133">
  <g id="Group_110" data-name="Group 110" transform="translate(-141.464 -206.686)">
    <rect id="Rectangle_176" data-name="Rectangle 176" width="9.254" height="3.866" transform="translate(199.8 256.049)" fill="#adadad"/>
    <rect id="Rectangle_177" data-name="Rectangle 177" width="9.254" height="3.866" transform="translate(199.8 260.969)" fill="#adadad"/>
    <rect id="Rectangle_178" data-name="Rectangle 178" width="9.254" height="3.866" transform="translate(199.8 265.889)" fill="#adadad"/>
    <rect id="Rectangle_179" data-name="Rectangle 179" width="9.254" height="3.866" transform="translate(199.8 270.809)" fill="#adadad"/>
    <rect id="Rectangle_180" data-name="Rectangle 180" width="9.254" height="3.866" transform="translate(210.226 256.049)" fill="#adadad"/>
    <rect id="Rectangle_181" data-name="Rectangle 181" width="9.254" height="3.866" transform="translate(210.226 260.969)" fill="#adadad"/>
    <rect id="Rectangle_182" data-name="Rectangle 182" width="9.254" height="3.866" transform="translate(210.226 265.889)" fill="#adadad"/>
    <rect id="Rectangle_183" data-name="Rectangle 183" width="9.254" height="3.866" transform="translate(210.226 270.809)" fill="#adadad"/>
    <path id="Union_9" data-name="Union 9" d="M0,20.928V7.222H.224L9.158.2l.124,6.91L17.5.2v6.91L25.891.2v6.91L35.122,0V7.222h.021V20.928Z" transform="translate(150.348 252.391)" fill="#707070" stroke="#707070" stroke-width="3"/>
    <path id="Path_34" data-name="Path 34" d="M16027.332-12409.457l2.215-12.861h4.012l1.734,12.861" transform="translate(-15870.883 12659.805)" fill="none" stroke="#707070" stroke-width="3"/>
    <path id="Union_10" data-name="Union 10" d="M11.337,21.338a5.925,5.925,0,0,1-6.776-7.8,6.972,6.972,0,1,1,9.323-6.8A5.893,5.893,0,0,1,21.9,12.264a5.916,5.916,0,0,1-.927,3.189,5.91,5.91,0,1,1-9.632,5.885Z" transform="translate(141.464 206.686)" fill="#a7a5a5"/>
    <rect id="Rectangle_172" data-name="Rectangle 172" width="9.254" height="3.866" transform="translate(189.374 256.049)" fill="#adadad"/>
    <rect id="Rectangle_173" data-name="Rectangle 173" width="9.254" height="3.866" transform="translate(189.374 260.969)" fill="#adadad"/>
    <rect id="Rectangle_174" data-name="Rectangle 174" width="9.254" height="3.866" transform="translate(189.374 265.889)" fill="#adadad"/>
    <rect id="Rectangle_175" data-name="Rectangle 175" width="9.254" height="3.866" transform="translate(189.374 270.809)" fill="#adadad"/>
  </g>
</svg>
