<svg xmlns="http://www.w3.org/2000/svg" width="137.751" height="149.477" viewBox="0 0 137.751 149.477">
  <g id="Group_90" data-name="Group 90" transform="translate(-4907.9 9181.056)">
    <path id="Path_38" data-name="Path 38" d="M16097.493-11466.044l47.775,82.148" transform="translate(-11106.15 2323.564)" fill="none" stroke="#1c4b3d" stroke-linecap="round" stroke-linejoin="round" stroke-width="7"/>
    <path id="Path_40" data-name="Path 40" d="M20.942,0,48.9,48.417,0,48.28" transform="translate(4979.06 -9079.346) rotate(120)" fill="none" stroke="#1c4b3d" stroke-linecap="round" stroke-linejoin="round" stroke-width="7"/>
    <path id="Path_41" data-name="Path 41" d="M0,0,10.381,8.493,0,16.891" transform="matrix(0.485, -0.875, 0.875, 0.485, 4926.064, -9101.067)" fill="none" stroke="#1c4b3d" stroke-width="7"/>
    <path id="Path_42" data-name="Path 42" d="M0,0,10.381,8.493,0,16.891" transform="translate(4963.543 -9165.908) rotate(-60)" fill="none" stroke="#1c4b3d" stroke-width="7"/>
    <path id="Path_43" data-name="Path 43" d="M0,0,10.381,8.492,0,16.891" transform="translate(5003.451 -9051.887) rotate(-180)" fill="none" stroke="#1c4b3d" stroke-width="7"/>
    <path id="Path_91" data-name="Path 91" d="M16097.492-11466.044l22.85,39.416" transform="translate(3157.978 -28734.191) rotate(120)" fill="none" stroke="#1c4b3d" stroke-linecap="round" stroke-linejoin="round" stroke-width="7"/>
    <path id="Path_92" data-name="Path 92" d="M27.771,0,58.6,52.69" transform="translate(4958.347 -9091.909) rotate(-120)" fill="none" stroke="#1c4b3d" stroke-linecap="round" stroke-linejoin="round" stroke-width="7"/>
  </g>
</svg>
