<svg xmlns="http://www.w3.org/2000/svg" width="81.088" height="37.976" viewBox="0 0 81.088 37.976">
  <g id="Group_111" data-name="Group 111" transform="translate(-270.512 -241)">
    <path id="Path_47" data-name="Path 47" d="M20945.723-11714.6h10.141v-15h7.168v15h10.641v-31.242h-27.949Z" transform="translate(-20674.711 11993.075)" stroke="#000" stroke-width="1"/>
    <rect id="Rectangle_169" data-name="Rectangle 169" width="22.073" height="7.946" transform="translate(273.688 250.406)" fill="#60605d"/>
    <rect id="Rectangle_200" data-name="Rectangle 200" width="8" height="14" rx="1" transform="translate(302.309 248.598)" fill="#1c4b3d"/>
    <g id="Ellipse_55" data-name="Ellipse 55" transform="translate(306.309 260.598)" fill="#dae2e0" stroke="#dae2e0" stroke-width="1">
      <circle cx="0.5" cy="0.5" r="0.5" stroke="none"/>
      <circle cx="0.5" cy="0.5" fill="none"/>
    </g>
    <g id="Rectangle_201" data-name="Rectangle 201" transform="translate(303.309 250.598)" fill="#dae2e0" stroke="#dae2e0" stroke-width="1">
      <rect width="6" height="9" stroke="none"/>
      <rect x="0.5" y="0.5" width="5" height="8" fill="none"/>
    </g>
    <rect id="Rectangle_264" data-name="Rectangle 264" width="8" height="14" rx="1" transform="translate(311.309 248.598)" fill="#1c4b3d"/>
    <g id="Ellipse_65" data-name="Ellipse 65" transform="translate(315.309 260.598)" fill="#dae2e0" stroke="#dae2e0" stroke-width="1">
      <circle cx="0.5" cy="0.5" r="0.5" stroke="none"/>
      <circle cx="0.5" cy="0.5" fill="none"/>
    </g>
    <g id="Rectangle_265" data-name="Rectangle 265" transform="translate(312.309 250.598)" fill="#dae2e0" stroke="#dae2e0" stroke-width="1">
      <rect width="6" height="9" stroke="none"/>
      <rect x="0.5" y="0.5" width="5" height="8" fill="none"/>
    </g>
    <rect id="Rectangle_266" data-name="Rectangle 266" width="8" height="14" rx="1" transform="translate(302.309 263.598)" fill="#1c4b3d"/>
    <g id="Ellipse_66" data-name="Ellipse 66" transform="translate(306.309 275.598)" fill="#dae2e0" stroke="#dae2e0" stroke-width="1">
      <circle cx="0.5" cy="0.5" r="0.5" stroke="none"/>
      <circle cx="0.5" cy="0.5" fill="none"/>
    </g>
    <g id="Rectangle_267" data-name="Rectangle 267" transform="translate(303.309 265.598)" fill="#dae2e0" stroke="#dae2e0" stroke-width="1">
      <rect width="6" height="9" stroke="none"/>
      <rect x="0.5" y="0.5" width="5" height="8" fill="none"/>
    </g>
    <rect id="Rectangle_268" data-name="Rectangle 268" width="8" height="14" rx="1" transform="translate(311.309 263.598)" fill="#1c4b3d"/>
    <g id="Ellipse_67" data-name="Ellipse 67" transform="translate(315.309 275.598)" fill="#dae2e0" stroke="#dae2e0" stroke-width="1">
      <circle cx="0.5" cy="0.5" r="0.5" stroke="none"/>
      <circle cx="0.5" cy="0.5" fill="none"/>
    </g>
    <g id="Rectangle_269" data-name="Rectangle 269" transform="translate(312.309 265.598)" fill="#dae2e0" stroke="#dae2e0" stroke-width="1">
      <rect width="6" height="9" stroke="none"/>
      <rect x="0.5" y="0.5" width="5" height="8" fill="none"/>
    </g>
    <rect id="Rectangle_270" data-name="Rectangle 270" width="8" height="14" rx="1" transform="translate(302.309 263.598)" fill="#1c4b3d"/>
    <g id="Ellipse_68" data-name="Ellipse 68" transform="translate(306.309 275.598)" fill="#dae2e0" stroke="#dae2e0" stroke-width="1">
      <circle cx="0.5" cy="0.5" r="0.5" stroke="none"/>
      <circle cx="0.5" cy="0.5" fill="none"/>
    </g>
    <g id="Rectangle_271" data-name="Rectangle 271" transform="translate(303.309 265.598)" fill="#dae2e0" stroke="#dae2e0" stroke-width="1">
      <rect width="6" height="9" stroke="none"/>
      <rect x="0.5" y="0.5" width="5" height="8" fill="none"/>
    </g>
    <rect id="Rectangle_272" data-name="Rectangle 272" width="8" height="14" rx="1" transform="translate(311.309 263.598)" fill="#1c4b3d"/>
    <g id="Ellipse_69" data-name="Ellipse 69" transform="translate(315.309 275.598)" fill="#dae2e0" stroke="#dae2e0" stroke-width="1">
      <circle cx="0.5" cy="0.5" r="0.5" stroke="none"/>
      <circle cx="0.5" cy="0.5" fill="none"/>
    </g>
    <g id="Rectangle_273" data-name="Rectangle 273" transform="translate(312.309 265.598)" fill="#dae2e0" stroke="#dae2e0" stroke-width="1">
      <rect width="6" height="9" stroke="none"/>
      <rect x="0.5" y="0.5" width="5" height="8" fill="none"/>
    </g>
    <rect id="Rectangle_274" data-name="Rectangle 274" width="8" height="14" rx="1" transform="translate(320.309 248.598)" fill="#1c4b3d"/>
    <g id="Ellipse_70" data-name="Ellipse 70" transform="translate(324.309 260.598)" fill="#dae2e0" stroke="#dae2e0" stroke-width="1">
      <circle cx="0.5" cy="0.5" r="0.5" stroke="none"/>
      <circle cx="0.5" cy="0.5" fill="none"/>
    </g>
    <g id="Rectangle_275" data-name="Rectangle 275" transform="translate(321.309 250.598)" fill="#dae2e0" stroke="#dae2e0" stroke-width="1">
      <rect width="6" height="9" stroke="none"/>
      <rect x="0.5" y="0.5" width="5" height="8" fill="none"/>
    </g>
    <rect id="Rectangle_276" data-name="Rectangle 276" width="8" height="14" rx="1" transform="translate(329.309 248.598)" fill="#1c4b3d"/>
    <g id="Ellipse_71" data-name="Ellipse 71" transform="translate(350.6 241)" fill="#dae2e0" stroke="#dae2e0" stroke-width="1">
      <circle cx="0.5" cy="0.5" r="0.5" stroke="none"/>
      <circle cx="0.5" cy="0.5" fill="none"/>
    </g>
    <g id="Rectangle_277" data-name="Rectangle 277" transform="translate(330.309 250.598)" fill="#dae2e0" stroke="#dae2e0" stroke-width="1">
      <rect width="6" height="9" stroke="none"/>
      <rect x="0.5" y="0.5" width="5" height="8" fill="none"/>
    </g>
    <rect id="Rectangle_278" data-name="Rectangle 278" width="8" height="14" rx="1" transform="translate(320.309 263.598)" fill="#1c4b3d"/>
    <g id="Ellipse_72" data-name="Ellipse 72" transform="translate(324.309 275.598)" fill="#dae2e0" stroke="#dae2e0" stroke-width="1">
      <circle cx="0.5" cy="0.5" r="0.5" stroke="none"/>
      <circle cx="0.5" cy="0.5" fill="none"/>
    </g>
    <g id="Rectangle_279" data-name="Rectangle 279" transform="translate(321.309 265.598)" fill="#dae2e0" stroke="#dae2e0" stroke-width="1">
      <rect width="6" height="9" stroke="none"/>
      <rect x="0.5" y="0.5" width="5" height="8" fill="none"/>
    </g>
    <rect id="Rectangle_280" data-name="Rectangle 280" width="8" height="14" rx="1" transform="translate(329.309 263.598)" fill="#1c4b3d"/>
    <g id="Ellipse_73" data-name="Ellipse 73" transform="translate(350.6 256)" fill="#dae2e0" stroke="#dae2e0" stroke-width="1">
      <circle cx="0.5" cy="0.5" r="0.5" stroke="none"/>
      <circle cx="0.5" cy="0.5" fill="none"/>
    </g>
    <g id="Rectangle_281" data-name="Rectangle 281" transform="translate(330.309 265.598)" fill="#dae2e0" stroke="#dae2e0" stroke-width="1">
      <rect width="6" height="9" stroke="none"/>
      <rect x="0.5" y="0.5" width="5" height="8" fill="none"/>
    </g>
    <rect id="Rectangle_282" data-name="Rectangle 282" width="8" height="14" rx="1" transform="translate(320.309 263.598)" fill="#1c4b3d"/>
    <g id="Ellipse_74" data-name="Ellipse 74" transform="translate(324.309 275.598)" fill="#dae2e0" stroke="#dae2e0" stroke-width="1">
      <circle cx="0.5" cy="0.5" r="0.5" stroke="none"/>
      <circle cx="0.5" cy="0.5" fill="none"/>
    </g>
    <g id="Rectangle_283" data-name="Rectangle 283" transform="translate(321.309 265.598)" fill="#dae2e0" stroke="#dae2e0" stroke-width="1">
      <rect width="6" height="9" stroke="none"/>
      <rect x="0.5" y="0.5" width="5" height="8" fill="none"/>
    </g>
    <rect id="Rectangle_284" data-name="Rectangle 284" width="8" height="14" rx="1" transform="translate(329.309 263.598)" fill="#1c4b3d"/>
    <g id="Ellipse_75" data-name="Ellipse 75" transform="translate(350.6 256)" fill="#dae2e0" stroke="#dae2e0" stroke-width="1">
      <circle cx="0.5" cy="0.5" r="0.5" stroke="none"/>
      <circle cx="0.5" cy="0.5" fill="none"/>
    </g>
    <g id="Rectangle_285" data-name="Rectangle 285" transform="translate(330.309 265.598)" fill="#dae2e0" stroke="#dae2e0" stroke-width="1">
      <rect width="6" height="9" stroke="none"/>
      <rect x="0.5" y="0.5" width="5" height="8" fill="none"/>
    </g>
    <text id="_" data-name="$" transform="translate(282 257)" fill="#dae2e0" font-size="8" font-family="Space Grotesk" font-weight="500"><tspan x="0" y="0">$</tspan></text>
  </g>
</svg>
