<svg xmlns="http://www.w3.org/2000/svg" width="292" height="21" viewBox="0 0 292 21">
  <g id="Group_40" data-name="Group 40" transform="translate(1201 -235.371)">
    <g id="Rectangle_184" data-name="Rectangle 184" transform="translate(-1201 235.371)" fill="#1c4b3d" stroke="#1c4b3d" stroke-width="1">
      <rect width="3" height="21" stroke="none"/>
      <rect x="0.5" y="0.5" width="2" height="20" fill="none"/>
    </g>
    <g id="Rectangle_185" data-name="Rectangle 185" transform="translate(-910.563 244.432) rotate(90)" fill="#1c4b3d" stroke="#1c4b3d" stroke-width="1">
      <rect width="3.261" height="290.437" stroke="none"/>
      <rect x="0.5" y="0.5" width="2.261" height="289.437" fill="none"/>
    </g>
    <g id="Rectangle_186" data-name="Rectangle 186" transform="translate(-1058 235.371)" fill="#1c4b3d" stroke="#1c4b3d" stroke-width="1">
      <rect width="4" height="21" stroke="none"/>
      <rect x="0.5" y="0.5" width="3" height="20" fill="none"/>
    </g>
    <g id="Rectangle_187" data-name="Rectangle 187" transform="translate(-912 235.371)" fill="#1c4b3d" stroke="#1c4b3d" stroke-width="1">
      <rect width="3" height="21" stroke="none"/>
      <rect x="0.5" y="0.5" width="2" height="20" fill="none"/>
    </g>
    <g id="Rectangle_188" data-name="Rectangle 188" transform="translate(-1147 240.371)" fill="#1c4b3d" stroke="#1c4b3d" stroke-width="1">
      <rect width="1" height="12" stroke="none"/>
      <rect x="0.5" y="0.5" height="11" fill="none"/>
    </g>
    <g id="Rectangle_189" data-name="Rectangle 189" transform="translate(-1121 240.371)" fill="#1c4b3d" stroke="#1c4b3d" stroke-width="1">
      <rect width="2" height="12" stroke="none"/>
      <rect x="0.5" y="0.5" width="1" height="11" fill="none"/>
    </g>
    <g id="Rectangle_190" data-name="Rectangle 190" transform="translate(-1094 240.371)" fill="#1c4b3d" stroke="#1c4b3d" stroke-width="1">
      <rect width="1" height="12" stroke="none"/>
      <rect x="0.5" y="0.5" height="11" fill="none"/>
    </g>
    <g id="Rectangle_191" data-name="Rectangle 191" transform="translate(-1174 240.371)" fill="#1c4b3d" stroke="#1c4b3d" stroke-width="1">
      <rect width="2" height="12" stroke="none"/>
      <rect x="0.5" y="0.5" width="1" height="11" fill="none"/>
    </g>
    <g id="Rectangle_196" data-name="Rectangle 196" transform="translate(-992 240.371)" fill="#1c4b3d" stroke="#1c4b3d" stroke-width="1">
      <rect width="1" height="12" stroke="none"/>
      <rect x="0.5" y="0.5" height="11" fill="none"/>
    </g>
    <g id="Rectangle_197" data-name="Rectangle 197" transform="translate(-966 240.371)" fill="#1c4b3d" stroke="#1c4b3d" stroke-width="1">
      <rect width="2" height="12" stroke="none"/>
      <rect x="0.5" y="0.5" width="1" height="11" fill="none"/>
    </g>
    <g id="Rectangle_198" data-name="Rectangle 198" transform="translate(-940 240.371)" fill="#1c4b3d" stroke="#1c4b3d" stroke-width="1">
      <rect width="2" height="12" stroke="none"/>
      <rect x="0.5" y="0.5" width="1" height="11" fill="none"/>
    </g>
    <g id="Rectangle_199" data-name="Rectangle 199" transform="translate(-1019 240.371)" fill="#1c4b3d" stroke="#1c4b3d" stroke-width="1">
      <rect width="2" height="12" stroke="none"/>
      <rect x="0.5" y="0.5" width="1" height="11" fill="none"/>
    </g>
  </g>
</svg>
