<svg xmlns="http://www.w3.org/2000/svg" width="49.781" height="53.608" viewBox="0 0 49.781 53.608">
  <g id="Group_109" data-name="Group 109" transform="translate(-33 -229)">
    <line id="Line_50" data-name="Line 50" y2="19.686" transform="translate(66.423 262.922)" fill="none" stroke="#1c4b3d" stroke-width="3"/>
    <line id="Line_51" data-name="Line 51" y2="19.686" transform="translate(72.513 262.922)" fill="none" stroke="#1c4b3d" stroke-width="3"/>
    <g id="Union_8" data-name="Union 8" transform="translate(55.447 236.934)" fill="#1c4b3d">
      <path d="M 20.2078914642334 20.43539619445801 C 19.08879280090332 20.43539619445801 18.04876136779785 19.92495536804199 17.35447311401367 19.03496551513672 L 14.79933261871338 15.75960636138916 L 12.0050220489502 18.83345603942871 C 11.06595230102539 19.86648559570312 9.783942222595215 20.43539619445801 8.395172119140625 20.43539619445801 C 5.695961952209473 20.43539619445801 3.500002145767212 18.22112655639648 3.500002145767212 15.49941635131836 C 3.500002145767212 12.77755641937256 5.695961952209473 10.56316661834717 8.395172119140625 10.56316661834717 C 8.663331985473633 10.56316661834717 8.931841850280762 10.58499622344971 9.193242073059082 10.62805652618408 L 13.26214218139648 11.29834651947021 L 13.26214218139648 7.174606323242188 L 13.26214218139648 7.160786151885986 C 13.26214218139648 5.142216205596924 14.88880252838135 3.499996185302734 16.88823127746582 3.499996185302734 C 18.8878116607666 3.499996185302734 20.51459312438965 5.142216205596924 20.51459312438965 7.160786151885986 C 20.51459312438965 7.730096340179443 20.38969230651855 8.274235725402832 20.14335250854492 8.778105735778809 L 18.59789276123047 11.93919658660889 L 21.76716232299805 13.4678258895874 C 23.02270126342773 14.07341575622559 23.83398246765137 15.37140655517578 23.83398246765137 16.77460670471191 C 23.83398246765137 18.79317665100098 22.20732307434082 20.43539619445801 20.2078914642334 20.43539619445801 Z" stroke="none"/>
      <path d="M 20.2078914642334 16.93539619445801 L 20.24661445617676 16.62027359008789 L 19.71144104003906 16.36604881286621 L 20.11407089233398 16.88216209411621 C 20.15560340881348 16.93539619445801 20.1883373260498 16.93539619445801 20.2078914642334 16.93539619445801 M 8.395170211791992 16.93539619445801 C 8.89543628692627 16.93539619445801 9.225992202758789 16.68729591369629 9.415192604064941 16.47915267944336 L 11.19259643554688 14.52394199371338 L 8.395170211791992 14.0631628036499 C 7.625869750976562 14.0631628036499 7.000003337860107 14.70746326446533 7.000003337860107 15.49940776824951 C 7.000003337860107 16.29121780395508 7.625869750976562 16.93539619445801 8.395170211791992 16.93539619445801 M 20.2078914642334 23.93539619445801 C 17.92859268188477 23.93539619445801 15.8996696472168 22.8603630065918 14.59485912322998 21.18777465820312 C 13.06001472473145 22.87616348266602 10.85098075866699 23.93539619445801 8.395170211791992 23.93539619445801 C 3.758625507354736 23.93539619445801 3.29861109094054e-06 20.1584300994873 3.29861109094054e-06 15.49940776824951 C 3.29861109094054e-06 10.8403959274292 3.758625507354736 7.063162803649902 8.395170211791992 7.063162803649902 C 8.860703468322754 7.063162803649902 9.317058563232422 7.101284980773926 9.762136459350586 7.174596309661865 C 9.762136459350586 7.169951915740967 9.762136459350586 7.165440559387207 9.762136459350586 7.16078519821167 C 9.762136459350586 3.206240653991699 12.95295906066895 -3.810119551417301e-06 16.88823699951172 -3.810119551417301e-06 C 20.82416915893555 -3.810119551417301e-06 24.01459312438965 3.206240653991699 24.01459312438965 7.16078519821167 C 24.01459312438965 8.29267406463623 23.75293731689453 9.363718032836914 23.28768157958984 10.31536293029785 C 25.68145942687988 11.46996307373047 27.33398056030273 13.92789649963379 27.33398056030273 16.77460670471191 C 27.33398056030273 20.72875213623047 24.14329147338867 23.93539619445801 20.2078914642334 23.93539619445801 Z" stroke="none" fill="#1c4b3d"/>
    </g>
    <line id="Line_64" data-name="Line 64" y2="19.686" transform="translate(43.977 254.988)" fill="none" stroke="#1c4b3d" stroke-width="3"/>
    <line id="Line_65" data-name="Line 65" y2="19.686" transform="translate(50.066 254.988)" fill="none" stroke="#1c4b3d" stroke-width="3"/>
    <g id="Union_19" data-name="Union 19" transform="translate(33 229)" fill="#1c4b3d">
      <path d="M 20.2078914642334 20.43539619445801 C 19.08879280090332 20.43539619445801 18.04876136779785 19.92495536804199 17.35447311401367 19.03496551513672 L 14.79933261871338 15.75960636138916 L 12.0050220489502 18.83345603942871 C 11.06595230102539 19.86648559570312 9.783942222595215 20.43539619445801 8.395172119140625 20.43539619445801 C 5.695961952209473 20.43539619445801 3.500002145767212 18.22112655639648 3.500002145767212 15.49941635131836 C 3.500002145767212 12.77755641937256 5.695961952209473 10.56316661834717 8.395172119140625 10.56316661834717 C 8.663331985473633 10.56316661834717 8.931841850280762 10.58499622344971 9.193242073059082 10.62805652618408 L 13.26214218139648 11.29834651947021 L 13.26214218139648 7.174606323242188 L 13.26214218139648 7.160786151885986 C 13.26214218139648 5.142216205596924 14.88880252838135 3.499996185302734 16.88823127746582 3.499996185302734 C 18.8878116607666 3.499996185302734 20.51459312438965 5.142216205596924 20.51459312438965 7.160786151885986 C 20.51459312438965 7.730096340179443 20.38969230651855 8.274235725402832 20.14335250854492 8.778105735778809 L 18.59789276123047 11.93919658660889 L 21.76716232299805 13.4678258895874 C 23.02270126342773 14.07341575622559 23.83398246765137 15.37140655517578 23.83398246765137 16.77460670471191 C 23.83398246765137 18.79317665100098 22.20732307434082 20.43539619445801 20.2078914642334 20.43539619445801 Z" stroke="none"/>
      <path d="M 20.2078914642334 16.93539619445801 L 20.24661445617676 16.62027359008789 L 19.71144104003906 16.36604881286621 L 20.11407089233398 16.88216209411621 C 20.15560340881348 16.93539619445801 20.1883373260498 16.93539619445801 20.2078914642334 16.93539619445801 M 8.395170211791992 16.93539619445801 C 8.89543628692627 16.93539619445801 9.225992202758789 16.68729591369629 9.415192604064941 16.47915267944336 L 11.19259643554688 14.52394199371338 L 8.395170211791992 14.0631628036499 C 7.625869750976562 14.0631628036499 7.000003337860107 14.70746326446533 7.000003337860107 15.49940776824951 C 7.000003337860107 16.29121780395508 7.625869750976562 16.93539619445801 8.395170211791992 16.93539619445801 M 20.2078914642334 23.93539619445801 C 17.92859268188477 23.93539619445801 15.8996696472168 22.8603630065918 14.59485912322998 21.18777465820312 C 13.06001472473145 22.87616348266602 10.85098075866699 23.93539619445801 8.395170211791992 23.93539619445801 C 3.758625507354736 23.93539619445801 3.29861109094054e-06 20.1584300994873 3.29861109094054e-06 15.49940776824951 C 3.29861109094054e-06 10.8403959274292 3.758625507354736 7.063162803649902 8.395170211791992 7.063162803649902 C 8.860703468322754 7.063162803649902 9.317058563232422 7.101284980773926 9.762136459350586 7.174596309661865 C 9.762136459350586 7.169951915740967 9.762136459350586 7.165440559387207 9.762136459350586 7.16078519821167 C 9.762136459350586 3.206240653991699 12.95295906066895 -3.810119551417301e-06 16.88823699951172 -3.810119551417301e-06 C 20.82416915893555 -3.810119551417301e-06 24.01459312438965 3.206240653991699 24.01459312438965 7.16078519821167 C 24.01459312438965 8.29267406463623 23.75293731689453 9.363718032836914 23.28768157958984 10.31536293029785 C 25.68145942687988 11.46996307373047 27.33398056030273 13.92789649963379 27.33398056030273 16.77460670471191 C 27.33398056030273 20.72875213623047 24.14329147338867 23.93539619445801 20.2078914642334 23.93539619445801 Z" stroke="none" fill="#1c4b3d"/>
    </g>
  </g>
</svg>
